<svg width="51" height="52" viewBox="0 0 51 52" fill="none" xmlns="http://www.w3.org/2000/svg">
<path d="M31.0282 36.4407C31.3124 36.251 31.7058 36.3728 31.8224 36.6865L36.2403 48.5712C36.3824 48.9534 36.0243 49.3336 35.6163 49.2339L19.3504 45.2595C18.9129 45.1526 18.8092 44.5987 19.1803 44.351L31.0282 36.4407Z" fill="url(#paint0_linear_1442_14)"/>
<path d="M33.8816 33.8175C33.8612 33.7626 33.8508 33.7047 33.8508 33.6464V21.6687C33.8508 21.3299 33.5129 21.0864 33.176 21.1824L19.238 25.1548C18.9011 25.2508 18.5632 25.0073 18.5632 24.6685V16.9277C18.5632 16.7694 18.6398 16.6203 18.7703 16.5243L36.9334 3.17541C37.1859 2.98988 37.5499 3.06072 37.708 3.32614L48.6801 21.747C48.7579 21.8775 48.7715 22.0346 48.7173 22.1757L39.4796 46.2325C39.3092 46.6763 38.6571 46.6729 38.4916 46.2274L33.8816 33.8175Z" fill="url(#paint1_linear_1442_14)"/>
<path d="M13.9125 4.2136C14.0002 4.13076 14.1152 4.08013 14.2376 4.0705L31.0015 2.75189C31.5252 2.7107 31.7807 3.35407 31.3626 3.66086L17.0738 14.1441C16.9416 14.2412 16.7695 14.2722 16.6099 14.2278L7.20065 11.612C6.81363 11.5044 6.69064 11.0343 6.97842 10.7625L13.9125 4.2136Z" fill="url(#paint2_linear_1442_14)"/>
<path d="M4.5815 14.2441C4.62158 13.9348 4.93876 13.7333 5.24923 13.8199L15.2212 16.6006C15.4461 16.6633 15.601 16.8619 15.601 17.0877V28.346C15.601 28.6849 15.9391 28.9285 16.2761 28.8322L30.1174 24.8774C30.4543 24.7811 30.7925 25.0246 30.7925 25.3636V32.5146C30.7925 32.6807 30.7082 32.8362 30.5668 32.931L15.042 43.3381C14.8395 43.4739 14.5665 43.4557 14.3853 43.2943L2.41912 32.6397C2.29449 32.5287 2.23303 32.3665 2.25406 32.2042L4.5815 14.2441Z" fill="url(#paint3_linear_1442_14)"/>
<defs>
<linearGradient id="paint0_linear_1442_14" x1="39.0625" y1="11.4688" x2="2.24999" y2="49.25" gradientUnits="userSpaceOnUse">
<stop offset="0.015625" stop-color="#3294FF"/>
<stop offset="1" stop-color="#005BBE"/>
</linearGradient>
<linearGradient id="paint1_linear_1442_14" x1="39.0625" y1="11.4688" x2="2.24999" y2="49.25" gradientUnits="userSpaceOnUse">
<stop offset="0.015625" stop-color="#3294FF"/>
<stop offset="1" stop-color="#005BBE"/>
</linearGradient>
<linearGradient id="paint2_linear_1442_14" x1="39.0625" y1="11.4688" x2="2.24999" y2="49.25" gradientUnits="userSpaceOnUse">
<stop offset="0.015625" stop-color="#3294FF"/>
<stop offset="1" stop-color="#005BBE"/>
</linearGradient>
<linearGradient id="paint3_linear_1442_14" x1="39.0625" y1="11.4688" x2="2.24999" y2="49.25" gradientUnits="userSpaceOnUse">
<stop offset="0.015625" stop-color="#3294FF"/>
<stop offset="1" stop-color="#005BBE"/>
</linearGradient>
</defs>
</svg>
